<svg width="28" height="42" viewBox="0 0 28 42" fill="none" xmlns="http://www.w3.org/2000/svg">
<path d="M7.25 42H20.75C22.5402 42 24.2571 41.2888 25.523 40.023C26.7888 38.7571 27.5 37.0402 27.5 35.25C27.5 33.4598 26.7888 31.7429 25.523 30.477C24.2571 29.2112 22.5402 28.5 20.75 28.5H7.25C5.45979 28.5 3.7429 29.2112 2.47703 30.477C1.21116 31.7429 0.5 33.4598 0.5 35.25C0.5 37.0402 1.21116 38.7571 2.47703 40.023C3.7429 41.2888 5.45979 42 7.25 42ZM24.5 35.25C24.5 36.2446 24.1049 37.1984 23.4016 37.9016C22.6984 38.6049 21.7446 39 20.75 39H15.5V31.5H20.75C21.7446 31.5 22.6984 31.8951 23.4016 32.5984C24.1049 33.3016 24.5 34.2554 24.5 35.25ZM7.25 31.5H12.5V39H7.25C6.25544 39 5.30161 38.6049 4.59835 37.9016C3.89509 37.1984 3.5 36.2446 3.5 35.25C3.5 34.2554 3.89509 33.3016 4.59835 32.5984C5.30161 31.8951 6.25544 31.5 7.25 31.5ZM12.5 6.21L2.96 15.75C1.76768 17.0296 1.11857 18.722 1.14943 20.4707C1.18028 22.2194 1.88869 23.8879 3.1254 25.1246C4.36212 26.3613 6.03059 27.0697 7.7793 27.1006C9.52801 27.1314 11.2204 26.4823 12.5 25.29L22.04 15.75C23.2323 14.4704 23.8814 12.778 23.8506 11.0293C23.8197 9.28059 23.1113 7.61212 21.8746 6.3754C20.6379 5.13869 18.9694 4.43028 17.2207 4.39943C15.472 4.36857 13.7796 5.01768 12.5 6.21ZM10.385 23.175C9.68085 23.8891 8.72187 24.2942 7.71902 24.3013C6.71617 24.3083 5.7516 23.9167 5.0375 23.2125C4.3234 22.5084 3.91828 21.5494 3.91125 20.5465C3.90421 19.5437 4.29585 18.5791 5 17.865L8.72 14.145L14.09 19.5L10.385 23.175ZM20 13.635L16.28 17.355L10.91 12L14.615 8.295C15.3231 7.5809 16.2859 7.17736 17.2916 7.17314C18.2973 7.16892 19.2634 7.56437 19.9775 8.2725C20.6916 8.98063 21.0951 9.94343 21.0994 10.9491C21.1036 11.9548 20.7081 12.9209 20 13.635ZM5 0C4.60218 0 4.22064 0.158035 3.93934 0.43934C3.65804 0.720644 3.5 1.10218 3.5 1.5V3H2C1.60218 3 1.22064 3.15804 0.93934 3.43934C0.658036 3.72064 0.5 4.10218 0.5 4.5C0.5 4.89782 0.658036 5.27936 0.93934 5.56066C1.22064 5.84196 1.60218 6 2 6H3.5V7.5C3.5 7.89782 3.65804 8.27936 3.93934 8.56066C4.22064 8.84196 4.60218 9 5 9C5.39782 9 5.77936 8.84196 6.06066 8.56066C6.34196 8.27936 6.5 7.89782 6.5 7.5V6H8C8.39782 6 8.77936 5.84196 9.06066 5.56066C9.34196 5.27936 9.5 4.89782 9.5 4.5C9.5 4.10218 9.34196 3.72064 9.06066 3.43934C8.77936 3.15804 8.39782 3 8 3H6.5V1.5C6.5 1.10218 6.34196 0.720644 6.06066 0.43934C5.77936 0.158035 5.39782 0 5 0ZM23 18C22.6022 18 22.2206 18.158 21.9393 18.4393C21.658 18.7206 21.5 19.1022 21.5 19.5V21H20C19.6022 21 19.2206 21.158 18.9393 21.4393C18.658 21.7206 18.5 22.1022 18.5 22.5C18.5 22.8978 18.658 23.2794 18.9393 23.5607C19.2206 23.842 19.6022 24 20 24H21.5V25.5C21.5 25.8978 21.658 26.2794 21.9393 26.5607C22.2206 26.842 22.6022 27 23 27C23.3978 27 23.7794 26.842 24.0607 26.5607C24.342 26.2794 24.5 25.8978 24.5 25.5V24H26C26.3978 24 26.7794 23.842 27.0607 23.5607C27.342 23.2794 27.5 22.8978 27.5 22.5C27.5 22.1022 27.342 21.7206 27.0607 21.4393C26.7794 21.158 26.3978 21 26 21H24.5V19.5C24.5 19.1022 24.342 18.7206 24.0607 18.4393C23.7794 18.158 23.3978 18 23 18Z" fill="#C02636"/>
<path d="M24.5 35.25C24.5 36.2446 24.1049 37.1984 23.4016 37.9016C22.6984 38.6049 21.7446 39 20.75 39H15.5V31.5H20.75C21.7446 31.5 22.6984 31.8951 23.4016 32.5984C24.1049 33.3016 24.5 34.2554 24.5 35.25Z" fill="#C02636" fill-opacity="0.2"/>
<path d="M10.385 23.175C9.68085 23.8891 8.72187 24.2942 7.71902 24.3013C6.71617 24.3083 5.7516 23.9167 5.0375 23.2125C4.3234 22.5084 3.91828 21.5494 3.91125 20.5465C3.90421 19.5437 4.29585 18.5791 5 17.865L8.72 14.145L14.09 19.5L10.385 23.175Z" fill="#C02636" fill-opacity="0.2"/>
</svg>
