<svg width="14" height="14" viewBox="0 0 14 14" fill="none" xmlns="http://www.w3.org/2000/svg">
<g clip-path="url(#clip0_3157_780)">
<path fill-rule="evenodd" clip-rule="evenodd" d="M7.00004 1.75001C4.10055 1.75001 1.75004 4.10052 1.75004 7.00001C1.75004 9.89951 4.10055 12.25 7.00004 12.25C9.89954 12.25 12.25 9.89951 12.25 7.00001C12.25 4.10052 9.89954 1.75001 7.00004 1.75001ZM0.583374 7.00001C0.583374 3.45618 3.45621 0.583344 7.00004 0.583344C10.5439 0.583344 13.4167 3.45618 13.4167 7.00001C13.4167 10.5438 10.5439 13.4167 7.00004 13.4167C3.45621 13.4167 0.583374 10.5438 0.583374 7.00001ZM7.00004 2.91668C7.32221 2.91668 7.58337 3.17784 7.58337 3.50001V6.63949L9.59425 7.64493C9.8824 7.78901 9.9992 8.1394 9.85512 8.42755C9.71105 8.71571 9.36065 8.8325 9.0725 8.68843L6.73917 7.52176C6.54154 7.42295 6.41671 7.22096 6.41671 7.00001V3.50001C6.41671 3.17784 6.67787 2.91668 7.00004 2.91668Z" fill="#4D708F"/>
</g>
<defs>
<clipPath id="clip0_3157_780">
<rect width="14" height="14" fill="white"/>
</clipPath>
</defs>
</svg>
