<svg width="14" height="14" viewBox="0 0 14 14" fill="none" xmlns="http://www.w3.org/2000/svg">
<path fill-rule="evenodd" clip-rule="evenodd" d="M9.50427 0.754198C9.73207 0.526392 10.1014 0.526392 10.3292 0.754198L12.6626 3.08753C12.8904 3.31534 12.8904 3.68468 12.6626 3.91249L10.3292 6.24582C10.1014 6.47363 9.73207 6.47363 9.50427 6.24582C9.27646 6.01802 9.27646 5.64867 9.50427 5.42087L10.8418 4.08334H4.08341C3.61929 4.08334 3.17417 4.26772 2.84598 4.59591C2.51779 4.9241 2.33341 5.36922 2.33341 5.83334V6.41668C2.33341 6.73884 2.07225 7.00001 1.75008 7.00001C1.42792 7.00001 1.16675 6.73884 1.16675 6.41668V5.83334C1.16675 5.0598 1.47404 4.31793 2.02102 3.77095C2.568 3.22397 3.30987 2.91668 4.08341 2.91668H10.8418L9.50427 1.57916C9.27646 1.35135 9.27646 0.982004 9.50427 0.754198ZM4.49589 7.7542C4.7237 7.982 4.7237 8.35135 4.49589 8.57916L3.15837 9.91668H9.91675C10.3809 9.91668 10.826 9.7323 11.1542 9.40411C11.4824 9.07592 11.6667 8.63081 11.6667 8.16668V7.58334C11.6667 7.26118 11.9279 7.00001 12.2501 7.00001C12.5722 7.00001 12.8334 7.26118 12.8334 7.58334V8.16668C12.8334 8.94023 12.5261 9.68209 11.9791 10.2291C11.4322 10.7761 10.6903 11.0833 9.91675 11.0833H3.15837L4.49589 12.4209C4.7237 12.6487 4.7237 13.018 4.49589 13.2458C4.26809 13.4736 3.89874 13.4736 3.67094 13.2458L1.3376 10.9125C1.1098 10.6847 1.1098 10.3153 1.3376 10.0875L3.67094 7.7542C3.89874 7.52639 4.26809 7.52639 4.49589 7.7542Z" fill="#4D708F"/>
</svg>
