<svg width="255" height="60" viewBox="0 0 255 60" fill="none" xmlns="http://www.w3.org/2000/svg">
<path d="M65.203 47.3114V9.95972H85.1869C88.44 9.95972 91.0607 10.9524 93.0525 12.9414C95.0408 14.9304 96.0367 17.37 96.0367 20.2637C96.0367 24.9377 94.0812 28.0586 90.1702 29.6264V29.7326C93.4233 30.641 95.2225 33.5531 95.5678 38.4689C95.5678 38.5385 95.6005 39.1942 95.6732 40.4322C95.7423 41.6703 95.8041 42.5678 95.855 43.1282C95.9058 43.685 96.044 44.4029 96.2693 45.2747C96.4947 46.1465 96.7782 46.8279 97.1271 47.315H88.978C88.7017 46.6191 88.4946 45.7729 88.3564 44.7766C88.2183 43.7839 88.0984 42.6227 87.993 41.2967C87.8876 39.9707 87.7858 38.9963 87.6804 38.3663C87.4041 36.3443 86.8044 34.8974 85.8884 34.0257C84.9725 33.1539 83.5077 32.718 81.5013 32.718H73.3521V47.315H65.203V47.3114ZM73.3521 16.3407V26.8572H82.2791C86.0156 26.8572 87.8839 25.0769 87.8839 21.5202C87.8839 17.9634 86.0156 16.3407 82.2791 16.3407H73.3521Z" fill="#F8FAFB"/>
<path d="M127.339 35.5934H107.977C108.184 40.1612 110.383 42.4469 114.57 42.4469C115.988 42.4469 117.253 42.0879 118.361 41.3736C119.47 40.6593 120.142 39.8498 120.386 38.9414H126.874C124.9 45.011 120.713 48.044 114.312 48.044C110.125 48.044 106.792 46.7289 104.32 44.0952C101.845 41.4615 100.609 38.0366 100.609 33.8168C100.609 29.5971 101.881 26.293 104.426 23.5897C106.97 20.8864 110.267 19.5348 114.316 19.5348C118.678 19.5348 122.014 21.1026 124.333 24.2417C126.652 27.3809 127.656 31.1648 127.343 35.5934H127.339ZM107.977 30.8828H119.968C119.623 28.9304 118.99 27.4835 118.074 26.5421C117.158 25.6007 115.832 25.1282 114.105 25.1282C111.993 25.1282 110.47 25.7289 109.536 26.9341C108.602 28.1355 108.082 29.4542 107.981 30.8828H107.977Z" fill="#F8FAFB"/>
<path d="M131.905 47.3114V20.2637H138.861V23.9267H138.967C141.01 20.9963 143.743 19.5311 147.167 19.5311C151.078 19.5311 153.691 21.0293 155.007 24.0293C157.05 21.0293 159.747 19.5311 163.105 19.5311C166.151 19.5311 168.547 20.3077 170.295 21.8608C172.043 23.4139 172.916 25.8645 172.916 29.2124V47.3114H165.544V31.9853C165.544 31.1465 165.526 30.4505 165.493 29.8938C165.457 29.337 165.355 28.7436 165.181 28.1135C165.006 27.4872 164.766 26.9963 164.454 26.6483C164.141 26.3004 163.701 26.0037 163.131 25.7582C162.56 25.5165 161.859 25.3919 161.03 25.3919C157.74 25.3919 156.098 27.6776 156.098 32.2454V47.3114H148.726V32.1392C148.726 31.1978 148.719 30.4908 148.701 30.022C148.683 29.5494 148.595 28.967 148.443 28.2711C148.286 27.5751 148.061 27.0513 147.767 26.7033C147.472 26.3553 147.032 26.0476 146.444 25.7875C145.855 25.5275 145.128 25.3956 144.263 25.3956C143.812 25.3956 143.347 25.4835 142.86 25.6557C142.376 25.8315 141.838 26.1172 141.25 26.5201C140.661 26.9231 140.185 27.5678 139.821 28.4542C139.458 29.3443 139.276 30.3993 139.276 31.619V47.3114H131.905Z" fill="#F8FAFB"/>
<path d="M186.306 9.95972V16.0806H178.935V9.95972H186.306ZM178.935 47.3114V20.2637H186.306V47.3114H178.935Z" fill="#F8FAFB"/>
<path d="M192.122 47.3114V20.2637H199.129V24.0293H199.286C200.184 22.5641 201.368 21.4505 202.841 20.6813C204.313 19.9157 205.861 19.5311 207.486 19.5311C211.19 19.5311 213.748 20.4725 215.17 22.3553C216.587 24.2381 217.3 27.011 217.3 30.674V47.3077H209.928V32.033C209.928 29.7656 209.565 28.0916 208.838 27.011C208.111 25.9304 206.901 25.3883 205.203 25.3883C203.197 25.3883 201.743 26 200.841 27.2198C199.94 28.4396 199.493 30.4103 199.493 33.1319V47.3077H192.122V47.3114Z" fill="#F8FAFB"/>
<path d="M242.056 47.3114V43.8572H241.951C240.322 46.6484 237.607 48.044 233.801 48.044C229.996 48.044 226.994 46.641 224.9 43.8315C222.806 41.0257 221.76 37.5971 221.76 33.5531C221.76 29.5092 222.806 26.3333 224.9 23.6154C226.994 20.8938 229.909 19.5348 233.645 19.5348C235.27 19.5348 236.804 19.8828 238.24 20.5824C239.675 21.2821 240.791 22.2747 241.587 23.5641H241.693V9.95972H249.064V47.3114H242.056ZM241.951 33.7106C241.951 31.2344 241.449 29.1868 240.446 27.5641C239.443 25.9414 237.832 25.1319 235.619 25.1319C233.405 25.1319 231.726 25.9524 230.686 27.5898C229.647 29.2308 229.131 31.2857 229.131 33.7619C229.131 36.2381 229.676 38.1758 230.766 39.8828C231.857 41.5934 233.474 42.4469 235.619 42.4469C237.763 42.4469 239.486 41.6191 240.471 39.9634C241.456 38.3077 241.951 36.2235 241.951 33.7106Z" fill="#F8FAFB"/>
<path fill-rule="evenodd" clip-rule="evenodd" d="M46.6003 12.0293C42.2895 7.68498 36.3357 5 29.7604 5C16.6379 5 6 15.6379 6 28.7604V51C6 52.1046 6.89543 53 8 53H29.7604C36.3357 53 42.2895 50.315 46.6003 45.9707C50.9111 41.6264 53.5754 35.6264 53.5754 29C53.5754 22.3736 50.9111 16.3736 46.6003 12.0293ZM41.039 32.8645H33.2134V40.7509H25.5513V32.8645H17.7257V25.1392H25.5513V17.2527H33.2134V25.1392H41.039V32.8645Z" fill="#F8FAFB"/>
</svg>
