<svg width="40" height="35" viewBox="0 0 40 35" fill="none" xmlns="http://www.w3.org/2000/svg">
<path opacity="0.2" d="M36.5 2H3.5C3.10218 2 2.72064 2.15804 2.43934 2.43934C2.15804 2.72064 2 3.10218 2 3.5V33.5L8 30.5L14 33.5L20 30.5L26 33.5L32 30.5L38 33.5V3.5C38 3.10218 37.842 2.72064 37.5607 2.43934C37.2794 2.15804 36.8978 2 36.5 2ZM17 23H8V11H17V23Z" fill="#334FDC"/>
<path d="M36.5 0.5H3.5C2.70435 0.5 1.94129 0.81607 1.37868 1.37868C0.81607 1.94129 0.5 2.70435 0.5 3.5V33.5C0.500136 33.7557 0.565615 34.007 0.690218 34.2303C0.814822 34.4535 0.994415 34.6412 1.21195 34.7755C1.42948 34.9098 1.67773 34.9863 1.93314 34.9977C2.18854 35.0091 2.44262 34.955 2.67125 34.8406L8 32.1763L13.3287 34.8406C13.5371 34.9449 13.767 34.9992 14 34.9992C14.233 34.9992 14.4629 34.9449 14.6713 34.8406L20 32.1763L25.3288 34.8406C25.5371 34.9449 25.767 34.9992 26 34.9992C26.233 34.9992 26.4629 34.9449 26.6712 34.8406L32 32.1763L37.3288 34.8406C37.5574 34.955 37.8115 35.0091 38.0669 34.9977C38.3223 34.9863 38.5705 34.9098 38.7881 34.7755C39.0056 34.6412 39.1852 34.4535 39.3098 34.2303C39.4344 34.007 39.4999 33.7557 39.5 33.5V3.5C39.5 2.70435 39.1839 1.94129 38.6213 1.37868C38.0587 0.81607 37.2957 0.5 36.5 0.5ZM36.5 31.0737L32.6712 29.1575C32.4629 29.0532 32.233 28.9989 32 28.9989C31.767 28.9989 31.5371 29.0532 31.3288 29.1575L26 31.8237L20.6712 29.1575C20.4629 29.0532 20.233 28.9989 20 28.9989C19.767 28.9989 19.5371 29.0532 19.3288 29.1575L14 31.8237L8.67125 29.1575C8.46286 29.0532 8.23303 28.9989 8 28.9989C7.76697 28.9989 7.53714 29.0532 7.32875 29.1575L3.5 31.0737V3.5H36.5V31.0737ZM21.5 14C21.5 13.6022 21.658 13.2206 21.9393 12.9393C22.2206 12.658 22.6022 12.5 23 12.5H32C32.3978 12.5 32.7794 12.658 33.0607 12.9393C33.342 13.2206 33.5 13.6022 33.5 14C33.5 14.3978 33.342 14.7794 33.0607 15.0607C32.7794 15.342 32.3978 15.5 32 15.5H23C22.6022 15.5 22.2206 15.342 21.9393 15.0607C21.658 14.7794 21.5 14.3978 21.5 14ZM21.5 20C21.5 19.6022 21.658 19.2206 21.9393 18.9393C22.2206 18.658 22.6022 18.5 23 18.5H32C32.3978 18.5 32.7794 18.658 33.0607 18.9393C33.342 19.2206 33.5 19.6022 33.5 20C33.5 20.3978 33.342 20.7794 33.0607 21.0607C32.7794 21.342 32.3978 21.5 32 21.5H23C22.6022 21.5 22.2206 21.342 21.9393 21.0607C21.658 20.7794 21.5 20.3978 21.5 20ZM8 24.5H17C17.3978 24.5 17.7794 24.342 18.0607 24.0607C18.342 23.7794 18.5 23.3978 18.5 23V11C18.5 10.6022 18.342 10.2206 18.0607 9.93934C17.7794 9.65804 17.3978 9.5 17 9.5H8C7.60218 9.5 7.22064 9.65804 6.93934 9.93934C6.65804 10.2206 6.5 10.6022 6.5 11V23C6.5 23.3978 6.65804 23.7794 6.93934 24.0607C7.22064 24.342 7.60218 24.5 8 24.5ZM9.5 12.5H15.5V21.5H9.5V12.5Z" fill="#334FDC"/>
</svg>
